<svg xmlns="http://www.w3.org/2000/svg" 
data-name="Layer 1" viewBox="0 0 100 125" x="0px" y="0px"
style="fill: #58a5f0;">
    
    <path
        d="M52.18,1h-.94a10,10,0,0,0-10,10V21.18C35,21.67,29,24,29,28.58v3.86a34.94,34.94,0,1,0,29.6,0V28.58c0-1.54-.8-4.4-6.12-6.21a25.52,25.52,0,0,0-6.18-1.19V11a5,5,0,0,1,5-5h.94a5,5,0,0,1,5,5V14a10,10,0,0,0,9.94,10H73a2.5,2.5,0,0,0,0-5H67.08a5,5,0,0,1-4.95-5V11A10,10,0,0,0,52.18,1ZM34,34.37a26.53,26.53,0,0,0,9.8,1.71,26.53,26.53,0,0,0,9.8-1.71V41c-.42.77-3.8,2.58-9.8,2.58S34.4,41.76,34,41ZM73.72,64.06A29.94,29.94,0,1,1,29,38.06v3c0,5.15,7.67,7.5,14.8,7.5s14.8-2.35,14.8-7.5v-3A29.88,29.88,0,0,1,73.72,64.06ZM53.53,28.58c-.61.81-4,2.5-9.75,2.5s-9.15-1.69-9.75-2.5c.6-.81,4-2.5,9.75-2.5a22.8,22.8,0,0,1,7.07,1A6.09,6.09,0,0,1,53.53,28.58Z" />
    <path
        d="M83.64,39.43a2.5,2.5,0,0,0,1.77-4.27l-3.93-3.93a2.5,2.5,0,1,0-3.54,3.54l3.93,3.93A2.49,2.49,0,0,0,83.64,39.43Z" />
    <path d="M88.65,25.37a2.5,2.5,0,0,0,.17-5L83.61,20a2.5,2.5,0,0,0-.34,5l5.21.35Z" />
    <path d="M82.25,14.21l3.93-3.93a2.5,2.5,0,0,0-3.54-3.54l-3.93,3.93a2.5,2.5,0,0,0,3.54,3.54Z" />
    <path d="M67.86,3.33l-.35,5.21a2.5,2.5,0,0,0,2.33,2.66H70A2.5,2.5,0,0,0,72.5,8.88l.35-5.21a2.5,2.5,0,0,0-5-.34Z" />
    <path
        d="M26.72,58.36A2.5,2.5,0,1,0,22,56.77a22.84,22.84,0,0,0,1.23,17.55,2.5,2.5,0,0,0,4.47-2.23A17.88,17.88,0,0,1,26.72,58.36Z" />
</svg>