<svg xmlns="http://www.w3.org/2000/svg" data-name="Layer 1" viewBox="0 0 64 80" x="0px" y="0px">
    <title>Rocket</title>
    <path d="M19.91,32.67l-2.8,2A1,1,0,0,0,17,36.19L27.81,47a1,1,0,0,0,.71.29h.08a1,1,0,0,0,.73-.42l2-2.8Z" />
    <path
        d="M62,3a1,1,0,0,0-1-1A44.57,44.57,0,0,0,30.39,13c-.76.66-1.51,1.36-2.22,2.08a44.38,44.38,0,0,0-9.06,13,1,1,0,0,0,.2,1.12L34.75,44.68a1,1,0,0,0,1.12.21c.85-.38,1.72-.81,2.56-1.27a44.36,44.36,0,0,0,10.49-7.78c.51-.51,1-1,1.48-1.56A44.38,44.38,0,0,0,62,3ZM50.1,23.1A6.5,6.5,0,1,1,52,18.5,6.45,6.45,0,0,1,50.1,23.1Z" />
    <path
        d="M50.32,37.25a46.36,46.36,0,0,1-11,8.13c-.74.4-1.5.78-2.26,1.14l.36,8.86A1,1,0,0,0,39,56.2a22.93,22.93,0,0,0,5-3.77,23.3,23.3,0,0,0,6.83-15.62Z" />
    <path
        d="M26.75,13.68l.44-.41a23.31,23.31,0,0,0-15.63,6.83A22.94,22.94,0,0,0,7.8,25a1,1,0,0,0,.83,1.49l8.86.36A46.36,46.36,0,0,1,26.75,13.68Z" />
    <path
        d="M23.89,46.49a1,1,0,0,0-1.81-.22,3.13,3.13,0,0,1-.46.61c-.56.56-1.93.71-3.13.85a17.3,17.3,0,0,0-1.72.25,12.63,12.63,0,0,0-1.84.55c.21-2,.8-4.75,2.19-6.14a3.14,3.14,0,0,1,.61-.46,1,1,0,0,0-.22-1.81A9.72,9.72,0,0,0,7.7,42.51C2.06,48.15,2,60.48,2,61a1,1,0,0,0,1.44.9,48.37,48.37,0,0,1,7.9-2.76,25.9,25.9,0,0,1,3.15-.52c2.64-.33,5.36-.68,7-2.32A9.72,9.72,0,0,0,23.89,46.49Z" />
</svg>